HIERARCHY
ROOT Hips
{
	OFFSET	0.00	0.00	0.00
	CHANNELS 6 Xposition Yposition Zposition Zrotation Xrotation Yrotation
	JOINT LeftUpLeg
	{
		OFFSET	 0.126116	-0.014019	-0.065224
		CHANNELS 3 Zrotation Xrotation Yrotation
		JOINT LeftLeg
		{
			OFFSET	 0.000000	 0.000000	 0.569914
			CHANNELS 3 Zrotation Xrotation Yrotation
			JOINT LeftFoot
			{
				OFFSET	 0.000000	 0.000000	 0.544423
				CHANNELS 3 Zrotation Xrotation Yrotation
				JOINT LeftToeBase
				{
					OFFSET	 0.000000	 0.000000	 0.207117
					CHANNELS 3 Zrotation Xrotation Yrotation
					End Site
					{
						OFFSET	 0.000000	 0.000000	 0.207117
					}
				}
			}
		}
	}
	JOINT RightUpLeg
	{
		OFFSET	-0.124023	-0.008373	-0.065224
		CHANNELS 3 Zrotation Xrotation Yrotation
		JOINT RightLeg
		{
			OFFSET	 0.000000	 0.000000	 0.570047
			CHANNELS 3 Zrotation Xrotation Yrotation
			JOINT RightFoot
			{
				OFFSET	 0.000000	 0.000000	 0.544354
				CHANNELS 3 Zrotation Xrotation Yrotation
				JOINT RightToeBase
				{
					OFFSET	 0.000000	 0.000000	 0.207540
					CHANNELS 3 Zrotation Xrotation Yrotation
					End Site
					{
						OFFSET	 0.000000	 0.000000	 0.207540
					}
				}
			}
		}
	}
	JOINT Spine
	{
		OFFSET	 0.000184	-0.007763	 0.117403
		CHANNELS 3 Zrotation Xrotation Yrotation
		JOINT Spine1
		{
			OFFSET	 0.000000	 0.000000	 0.137269
			CHANNELS 3 Zrotation Xrotation Yrotation
			JOINT Spine2
			{
				OFFSET	 0.000000	 0.000000	 0.156879
				CHANNELS 3 Zrotation Xrotation Yrotation
				JOINT LeftShoulder
				{
					OFFSET	 0.080501	-0.002496	 0.160144
					CHANNELS 3 Zrotation Xrotation Yrotation
					JOINT LeftArm
					{
						OFFSET	 0.000000	 0.000000	 0.164363
						CHANNELS 3 Zrotation Xrotation Yrotation
						JOINT LeftForeArm
						{
							OFFSET	 0.000000	 0.000000	 0.364576
							CHANNELS 3 Zrotation Xrotation Yrotation
							JOINT LeftHand
							{
								OFFSET	 0.000000	 0.000000	 0.360812
								CHANNELS 3 Zrotation Xrotation Yrotation
								JOINT LeftHandIndex1
								{
									OFFSET	 0.000000	 0.000000	 0.086006
									CHANNELS 3 Zrotation Xrotation Yrotation
									JOINT LeftHandIndex2
									{
										OFFSET	 0.000000	 0.000000	 0.047237
										CHANNELS 3 Zrotation Xrotation Yrotation
										JOINT LeftHandIndex3
										{
											OFFSET	-0.004284	-0.000551	 0.038165
											CHANNELS 3 Zrotation Xrotation Yrotation
											End Site
											{
												OFFSET	-0.004284	-0.000551	 0.038165
											}
										}
									}
								}
							}
						}
					}
				}
				JOINT Neck
				{
					OFFSET	 0.000000	 0.000000	 0.176489
					CHANNELS 3 Zrotation Xrotation Yrotation
					JOINT Head
					{
						OFFSET	 0.000000	-0.001747	 0.077940
						CHANNELS 3 Zrotation Xrotation Yrotation
						End Site
						{
							OFFSET	 0.000000	-0.001747	 0.077940
						}
					}
				}
				JOINT RightShoulder
				{
					OFFSET	-0.080363	 0.000306	 0.159706
					CHANNELS 3 Zrotation Xrotation Yrotation
					JOINT RightArm
					{
						OFFSET	 0.000000	 0.000000	 0.164196
						CHANNELS 3 Zrotation Xrotation Yrotation
						JOINT RightForeArm
						{
							OFFSET	 0.000000	 0.000000	 0.365611
							CHANNELS 3 Zrotation Xrotation Yrotation
							JOINT RightHand
							{
								OFFSET	 0.000000	 0.000000	 0.360648
								CHANNELS 3 Zrotation Xrotation Yrotation
								JOINT RightHandIndex1
								{
									OFFSET	 0.000000	 0.000000	 0.069977
									CHANNELS 3 Zrotation Xrotation Yrotation
									JOINT RightHandIndex2
									{
										OFFSET	 0.000000	 0.000000	 0.052305
										CHANNELS 3 Zrotation Xrotation Yrotation
										JOINT RightHandIndex3
										{
											OFFSET	 0.009002	-0.000782	 0.042196
											CHANNELS 3 Zrotation Xrotation Yrotation
											End Site
											{
												OFFSET	 0.009002	-0.000782	 0.042196
											}
										}
									}
								}
							}
						}
					}
				}
			}
		}
	}
}
MOTION
Frames:    5
Frame Time: 0.03333334
-0.408976	 0.296072	 1.229206	-175.954100	 12.126890	 14.015400	 39.890910	-13.601410	 171.082400	-8.254337	-40.530370	-5.755164	 152.302600	 77.513850	-163.493500	-2.385833	 28.452760	 0.000004	-31.849360	-33.638230	 153.582900	 5.732665	-52.261640	 3.331579	-22.275820	 83.146710	 39.703650	 2.384659	 28.388700	-0.000001	 88.928470	-24.045060	 16.600680	 51.729480	 21.038370	 7.245603	-17.585310	-5.472537	-21.412320	-91.776180	 78.527360	-180.000000	-1.738217	 7.179192	-37.194150	-19.717100	 34.471310	-59.237950	 63.243710	-32.796460	 41.083800	-4.130319	 21.525730	 0.991547	-5.167930	 0.731704	 3.519349	-1.378229	 35.397820	-2.634230	-18.357800	 7.150860	 7.651261	-25.976910	-21.394060	-16.372720	 89.782140	 78.203850	 180.000000	 67.726480	 2.211779	-9.160495	 7.819335	 25.174160	 52.569950	-61.797250	 45.508290	-108.144800	 5.716227	 19.173190	-3.685159	 5.027444	 0.246877	-9.377972	-2.350882	 35.473990	 5.254307
-0.413044	 0.301951	 1.230553	-175.445300	 11.947150	 13.494020	 40.427680	-12.325770	 171.262100	-8.133485	-39.228730	-5.524223	 151.075400	 77.956870	-162.109300	-2.385833	 28.452760	 0.000004	-31.320790	-33.331390	 154.720100	 5.973150	-52.035980	 3.511430	-20.644860	 83.462230	 37.644190	 2.384659	 28.388700	-0.000001	 87.502670	-23.270880	 16.435970	 50.358510	 20.490870	 8.185155	-17.220250	-5.195976	-21.269460	-91.776200	 78.527380	-180.000000	-1.950257	 6.884749	-35.171600	-19.263940	 33.963810	-59.572040	 64.084090	-32.290690	 41.443420	-4.130319	 21.525730	 0.991547	-5.167930	 0.731704	 3.519349	-1.378229	 35.397820	-2.634230	-18.014330	 7.518499	 7.602434	-25.889210	-21.895450	-16.469670	 89.782140	 78.203850	 180.000000	 74.574080	-0.122026	-8.214952	 7.406141	 25.554600	 54.238190	-76.883980	 50.584080	-98.780240	 5.716227	 19.173190	-3.685159	 5.027444	 0.246877	-9.377972	-2.350882	 35.473990	 5.254307
-0.416609	 0.307561	 1.231868	-174.945000	 11.744980	 12.940750	 40.879560	-10.954090	 171.358100	-8.055954	-37.914930	-5.320242	 150.320500	 78.335900	-161.173800	-2.385833	 28.452760	 0.000004	-30.695250	-33.005080	 155.914400	 6.166124	-51.875260	 3.655930	-18.485500	 83.832130	 35.088440	 2.384659	 28.388700	-0.000001	 86.091310	-22.424280	 16.219990	 49.068660	 20.012610	 9.043652	-16.877530	-4.959991	-21.082280	-91.776240	 78.527380	-179.999900	-2.201597	 6.588002	-32.983890	-18.463620	 33.626640	-60.550840	 64.877660	-31.819730	 41.791540	-4.130319	 21.525730	 0.991547	-5.167930	 0.731704	 3.519349	-1.378229	 35.397820	-2.634230	-17.700660	 7.813173	 7.644561	-25.782650	-22.258170	-16.681520	 89.782120	 78.203890	 180.000000	 76.880680	-2.768418	-4.599720	 9.941347	 24.285120	 48.906490	-86.498370	 49.914150	-91.499720	 5.716227	 19.173190	-3.685159	 5.027444	 0.246877	-9.377972	-2.350882	 35.473990	 5.254307
-0.419612	 0.313128	 1.233407	-174.492400	 11.553850	 12.043090	 41.219780	-9.207073	 171.719500	-8.131528	-36.378160	-5.181674	 149.839000	 78.358410	-160.328900	-2.385833	 28.452760	 0.000004	-29.572750	-33.002210	 157.475700	 6.103703	-51.853290	 3.605609	-13.375460	 84.096370	 29.787890	 2.384659	 28.388700	-0.000001	 84.934680	-21.347280	 16.419960	 47.824120	 19.628580	 9.692148	-16.593480	-4.742572	-20.841960	-91.776190	 78.527380	 180.000000	-2.551559	 6.130905	-30.683350	-17.412820	 33.405750	-62.025100	 65.640660	-31.432530	 42.249390	-4.130319	 21.525730	 0.991547	-5.167930	 0.731704	 3.519349	-1.378229	 35.397820	-2.634230	-17.554950	 7.732582	 8.154181	-25.587880	-21.912300	-17.465760	 89.782100	 78.203900	 180.000000	 76.699290	-5.344452	 0.619764	 14.027900	 21.108740	 38.758080	-90.466590	 45.980320	-88.088940	 5.716227	 19.173190	-3.685159	 5.027444	 0.246877	-9.377972	-2.350882	 35.473990	 5.254307
-0.422198	 0.317900	 1.234805	-174.041200	 11.311060	 11.289680	 41.505410	-7.633378	 171.922600	-8.204288	-34.953540	-5.048457	 149.445200	 78.422250	-159.625600	-2.385833	 28.452760	 0.000004	-28.565760	-32.905470	 158.847100	 6.055530	-51.811620	 3.565607	-8.516133	 84.328360	 24.725140	 2.384659	 28.388700	-0.000001	 83.780880	-20.379630	 16.504700	 46.716950	 19.238550	 10.334190	-16.321350	-4.561218	-20.630560	-91.776210	 78.527360	-180.000000	-2.939569	 5.919043	-28.667450	-16.454610	 33.215840	-63.423060	 66.327870	-31.122610	 42.693530	-4.130319	 21.525730	 0.991547	-5.167930	 0.731704	 3.519349	-1.378229	 35.397820	-2.634230	-17.388180	 7.673372	 8.511823	-25.385310	-21.707910	-17.944560	 89.782140	 78.203870	 180.000000	 75.073900	-7.216049	 7.591671	 18.506970	 15.443770	 24.731860	-91.542950	 39.257660	-87.422100	 5.716227	 19.173190	-3.685159	 5.027444	 0.246877	-9.377972	-2.350882	 35.473990	 5.254307
